<?xml version="1.0" encoding="UTF-8" standalone="no"?>
<!-- Uploaded to: SVG Repo, www.svgrepo.com, Generator: SVG Repo Mixer Tools -->

<svg
   fill="#000000"
   width="800px"
   height="800px"
   viewBox="0 0 24 24"
   version="1.1"
   id="svg4"
   sodipodi:docname="binary-svgrepo-com.svg"
   inkscape:version="1.2.2 (b0a8486541, 2022-12-01)"
   xmlns:inkscape="http://www.inkscape.org/namespaces/inkscape"
   xmlns:sodipodi="http://sodipodi.sourceforge.net/DTD/sodipodi-0.dtd"
   xmlns="http://www.w3.org/2000/svg"
   xmlns:svg="http://www.w3.org/2000/svg">
  <defs
     id="defs8" />
  <sodipodi:namedview
     id="namedview6"
     pagecolor="#ffffff"
     bordercolor="#666666"
     borderopacity="1.0"
     inkscape:showpageshadow="2"
     inkscape:pageopacity="0.0"
     inkscape:pagecheckerboard="true"
     inkscape:deskcolor="#d1d1d1"
     showgrid="false"
     inkscape:zoom="1.28375"
     inkscape:cx="368.4518"
     inkscape:cy="400"
     inkscape:window-width="2560"
     inkscape:window-height="1287"
     inkscape:window-x="2560"
     inkscape:window-y="40"
     inkscape:window-maximized="1"
     inkscape:current-layer="svg4" />
  <path
     d="M4,11A3,3,0,0,0,7,8V6A3,3,0,0,0,1,6V8A3,3,0,0,0,4,11ZM3,6A1,1,0,0,1,5,6V8A1,1,0,0,1,3,8ZM19,6a3,3,0,0,0-6,0V8a3,3,0,0,0,6,0ZM17,8a1,1,0,0,1-2,0V6a1,1,0,0,1,2,0Zm-7,3a1,1,0,0,1-1-1V4a1,1,0,0,1,2,0v6A1,1,0,0,1,10,11ZM23,4v6a1,1,0,0,1-2,0V4a1,1,0,0,1,2,0ZM7,18V16a3,3,0,0,0-6,0v2a3,3,0,0,0,6,0ZM3,18V16a1,1,0,0,1,2,0v2a1,1,0,0,1-2,0Zm6,0a3,3,0,0,0,6,0V16a3,3,0,0,0-6,0Zm2-2a1,1,0,0,1,2,0v2a1,1,0,0,1-2,0Zm12-2v6a1,1,0,0,1-2,0V14a1,1,0,0,1,2,0Zm-5-1a1,1,0,0,1,1,1v6a1,1,0,0,1-2,0V14A1,1,0,0,1,18,13Z"
     id="path2"
     style="fill:#000000;fill-opacity:1;stroke:#ffffff;stroke-opacity:1;stroke-width:0.3;stroke-dasharray:none" />
</svg>
