<svg version="1.1" viewBox="0.0 0.0 870.3884514435696 558.9658792650919" fill="none" stroke="none" stroke-linecap="square" stroke-miterlimit="10" xmlns:xlink="http://www.w3.org/1999/xlink" xmlns="http://www.w3.org/2000/svg"><clipPath id="p.0"><path d="m0 0l870.3884 0l0 558.9659l-870.3884 0l0 -558.9659z" clip-rule="nonzero"/></clipPath><g clip-path="url(#p.0)"><path fill="#000000" fill-opacity="0.0" d="m0 0l870.3884 0l0 558.9659l-870.3884 0z" fill-rule="evenodd"/><path fill="#000000" fill-opacity="0.0" d="m67.568245 362.46457l0 0c0 -35.27664 28.597366 -63.874023 63.874016 -63.874023l0 0c16.940445 0 33.187042 6.7295837 45.16574 18.708282c11.978714 11.978699 18.708267 28.225311 18.708267 45.16574l0 0c0 35.27664 -28.597366 63.874023 -63.87401 63.874023l0 0c-35.27665 0 -63.874016 -28.597382 -63.874016 -63.874023z" fill-rule="evenodd"/><path stroke="#000000" stroke-width="4.0" stroke-linejoin="round" stroke-linecap="butt" d="m67.568245 362.46457l0 0c0 -35.27664 28.597366 -63.874023 63.874016 -63.874023l0 0c16.940445 0 33.187042 6.7295837 45.16574 18.708282c11.978714 11.978699 18.708267 28.225311 18.708267 45.16574l0 0c0 35.27664 -28.597366 63.874023 -63.87401 63.874023l0 0c-35.27665 0 -63.874016 -28.597382 -63.874016 -63.874023z" fill-rule="evenodd"/><path fill="#000000" fill-opacity="0.0" d="m91.520996 319.8819l79.842514 0l0 85.165344l-79.842514 0z" fill-rule="evenodd"/><path fill="#000000" d="m130.99304 375.61813q-4.1093826 0 -6.4843826 -2.390625q-2.375 -2.390625 -2.375 -6.796875q0 -2.9375 0.890625 -5.609375q0.90625 -2.6875 2.53125 -4.78125q1.609375 -2.078125 4.0781326 -3.40625q2.484375 -1.328125 5.5 -1.328125q3.359375 0 5.09375 1.421875q1.75 1.421875 1.75 3.578125q0 1.609375 -0.765625 2.828125q-0.75 1.21875 -2.28125 1.21875q-1.265625 0 -1.90625 -0.625q-0.625 -0.640625 -0.625 -1.40625q0 -0.75 0.515625 -2.046875q0.515625 -1.3125 0.828125 -2.109375q-0.265625 -0.625 -1.15625 -0.921875q-0.890625 -0.296875 -1.84375 -0.296875q-3.1875 0 -5.5 3.71875q-2.3125076 3.71875 -2.3125076 9.109375q0 3.328125 1.4843826 5.28125q1.5 1.953125 4.03125 1.953125q2.265625 0 4.03125 -1.21875q1.78125 -1.21875 3.390625 -3.4375l1.34375 0.984375q-1.625 2.546875 -4.40625 4.421875q-2.765625 1.859375 -5.8125 1.859375z" fill-rule="nonzero"/><path fill="#000000" fill-opacity="0.0" d="m275.3924 351.8189l0 0c0 -35.27664 28.597351 -63.874023 63.874023 -63.874023l0 0c16.94043 0 33.187042 6.729553 45.16574 18.708252c11.978699 11.978699 18.708252 28.225311 18.708252 45.16577l0 0c0 35.27664 -28.597351 63.873993 -63.873993 63.873993l0 0c-35.276672 0 -63.874023 -28.597351 -63.874023 -63.873993z" fill-rule="evenodd"/><path stroke="#000000" stroke-width="4.0" stroke-linejoin="round" stroke-linecap="butt" d="m275.3924 351.8189l0 0c0 -35.27664 28.597351 -63.874023 63.874023 -63.874023l0 0c16.94043 0 33.187042 6.729553 45.16574 18.708252c11.978699 11.978699 18.708252 28.225311 18.708252 45.16577l0 0c0 35.27664 -28.597351 63.873993 -63.873993 63.873993l0 0c-35.276672 0 -63.874023 -28.597351 -63.874023 -63.873993z" fill-rule="evenodd"/><path fill="#000000" fill-opacity="0.0" d="m299.34515 309.2362l79.8425 0l0 85.165375l-79.8425 0z" fill-rule="evenodd"/><path fill="#000000" d="m341.99295 361.09747l-0.171875 0q-0.515625 0.453125 -1.34375 1.171875q-0.8125 0.703125 -1.703125 1.25q-1.125 0.703125 -2.078125 1.078125q-0.9375 0.375 -2.328125 0.375q-3.3905945 0 -5.3280945 -2.453125q-1.9375 -2.453125 -1.9375 -6.671875q0 -2.953125 1.046875 -5.6875q1.046875 -2.75 2.84375 -4.875q1.7655945 -2.0625 4.2343445 -3.34375q2.46875 -1.28125 5.171875 -1.28125q1.609375 0 3.203125 0.421875q1.59375 0.421875 2.625 1.03125l1.828125 -7.96875q0.140625 -0.625 0.203125 -0.96875q0.0625 -0.359375 0.0625 -0.78125q0 -0.84375 -0.34375 -1.28125q-0.34375 -0.453125 -0.953125 -0.671875q-0.5625 -0.203125 -1.546875 -0.265625q-0.984375 -0.078125 -1.78125 -0.171875l0.328125 -1.4375l9.5 -0.53125l0.234375 0.34375l-6.5 28.109375q-0.1875 0.765625 -0.390625 1.765625q-0.1875 1.0 -0.1875 1.515625q0 1.328125 0.5625 1.8125q0.5625 0.484375 1.890625 0.484375q0.453125 0 1.265625 -0.140625q0.828125 -0.140625 1.265625 -0.3125l-0.34375 1.5q-1.96875 0.890625 -3.265625 1.25q-1.28125 0.359375 -2.390625 0.359375q-1.6875 0 -2.6875 -0.875q-0.984375 -0.890625 -0.984375 -2.75zm3.296875 -14.921875q-0.046875 -0.6875 -0.359375 -1.328125q-0.296875 -0.640625 -0.765625 -1.15625q-0.53125 -0.59375 -1.390625 -0.96875q-0.859375 -0.390625 -2.03125 -0.390625q-1.796875 0 -3.40625 1.125q-1.609375 1.125 -2.828125 3.0q-1.171875 1.796875 -1.875 4.34375q-0.703125 2.546875 -0.703125 5.09375q0 1.4375 0.15625 2.546875q0.171875 1.09375 0.640625 2.03125q0.453125 0.859375 1.265625 1.375q0.828125 0.5 2.1875 0.5q1.28125 0 2.796875 -0.765625q1.515625 -0.78125 3.359375 -2.703125l2.953125 -12.703125z" fill-rule="nonzero"/><path fill="#000000" fill-opacity="0.0" d="m463.2546 434.32285l0 0c0 -35.27664 28.597351 -63.874023 63.873993 -63.874023l0 0c16.94043 0 33.187073 6.729553 45.16577 18.708252c11.978699 11.978699 18.708252 28.225311 18.708252 45.16577l0 0c0 35.27664 -28.597351 63.873993 -63.874023 63.873993l0 0c-35.27664 0 -63.873993 -28.597351 -63.873993 -63.873993z" fill-rule="evenodd"/><path stroke="#000000" stroke-width="4.0" stroke-linejoin="round" stroke-linecap="butt" d="m463.2546 434.32285l0 0c0 -35.27664 28.597351 -63.874023 63.873993 -63.874023l0 0c16.94043 0 33.187073 6.729553 45.16577 18.708252c11.978699 11.978699 18.708252 28.225311 18.708252 45.16577l0 0c0 35.27664 -28.597351 63.873993 -63.874023 63.873993l0 0c-35.27664 0 -63.873993 -28.597351 -63.873993 -63.873993z" fill-rule="evenodd"/><path fill="#000000" fill-opacity="0.0" d="m487.20734 391.74014l79.84253 0l0 85.165375l-79.84253 0z" fill-rule="evenodd"/><path fill="#000000" d="m528.5739 428.0389q0 2.484375 -1.5625 4.265625q-1.546875 1.78125 -4.53125 2.84375q-2.171875 0.796875 -4.40625 1.296875q-2.21875 0.484375 -4.921875 0.8125q0 3.703125 1.375 5.65625q1.375 1.953125 4.015625 1.953125q2.34375 0 4.140625 -1.171875q1.796875 -1.171875 3.53125 -3.484375l1.328125 0.984375q-1.875 2.859375 -4.6875 4.578125q-2.8125 1.703125 -5.828125 1.703125q-4.15625 0 -6.34375 -2.3125q-2.1875 -2.328125 -2.1875 -6.59375q0 -2.953125 0.921875 -5.640625q0.921875 -2.6875 2.703125 -4.90625q1.734375 -2.1875 4.25 -3.515625q2.53125 -1.34375 5.578125 -1.34375q3.375 0 5.0 1.375q1.625 1.375 1.625 3.5zm-4.3125 -0.578125q0 -0.921875 -0.265625 -1.4375q-0.25 -0.53125 -0.640625 -0.796875q-0.421875 -0.28125 -0.890625 -0.34375q-0.46875 -0.078125 -0.96875 -0.078125q-2.8125 0 -5.1875 3.09375q-2.375 3.09375 -3.015625 7.71875q1.640625 -0.234375 3.703125 -0.671875q2.0625 -0.4375 3.421875 -1.140625q1.953125 -1.0 2.890625 -2.578125q0.953125 -1.59375 0.953125 -3.765625z" fill-rule="nonzero"/><path fill="#000000" d="m546.3239 452.44516q0 1.71875 -0.84375 2.90625q-0.84375 1.171875 -2.296875 2.0q-1.09375 0.625 -2.546875 1.109375q-1.4375 0.46875 -3.171875 0.984375q-1.484375 0.4375 -2.875 1.09375q-1.375 0.640625 -2.265625 1.5625l12.453125 0l-0.640625 2.71875l-14.640625 0l0.515625 -2.125q0.46875 -0.625 1.125 -1.21875q0.65625 -0.59375 1.546875 -1.15625q0.78125 -0.484375 1.734375 -0.953125q0.96875 -0.46875 2.09375 -0.90625q1.453125 -0.5625 2.53125 -1.09375q1.09375 -0.546875 1.84375 -1.109375q1.140625 -0.84375 1.609375 -1.828125q0.484375 -1.0 0.484375 -2.328125q0 -1.546875 -0.84375 -2.4375q-0.84375 -0.90625 -2.1875 -0.90625q-1.296875 0 -2.203125 0.453125q-0.90625 0.453125 -1.265625 0.96875q0 0.1875 0.015625 0.53125q0.03125 0.34375 0.03125 0.828125q0 1.40625 -0.546875 2.109375q-0.546875 0.6875 -1.75 0.6875q-0.859375 0 -1.203125 -0.390625q-0.328125 -0.40625 -0.328125 -0.984375q0 -0.921875 0.5625 -1.859375q0.578125 -0.953125 1.625 -1.765625q1.015625 -0.796875 2.4375 -1.28125q1.421875 -0.5 3.078125 -0.5q2.65625 0 4.28125 1.3125q1.640625 1.3125 1.640625 3.578125z" fill-rule="nonzero"/><path fill="#000000" fill-opacity="0.0" d="m426.14566 212.10498l0 0c0 -35.27664 28.597382 -63.87401 63.874023 -63.87401l0 0c16.94043 0 33.187042 6.7295685 45.16574 18.708267c11.978699 11.978699 18.708252 28.225311 18.708252 45.16574l0 0c0 35.276657 -28.597351 63.874023 -63.873993 63.874023l0 0c-35.27664 0 -63.874023 -28.597366 -63.874023 -63.874023z" fill-rule="evenodd"/><path stroke="#000000" stroke-width="4.0" stroke-linejoin="round" stroke-linecap="butt" d="m426.14566 212.10498l0 0c0 -35.27664 28.597382 -63.87401 63.874023 -63.87401l0 0c16.94043 0 33.187042 6.7295685 45.16574 18.708267c11.978699 11.978699 18.708252 28.225311 18.708252 45.16574l0 0c0 35.276657 -28.597351 63.874023 -63.873993 63.874023l0 0c-35.27664 0 -63.874023 -28.597366 -63.874023 -63.874023z" fill-rule="evenodd"/><path fill="#000000" fill-opacity="0.0" d="m450.09842 169.52231l79.8425 0l0 85.16536l-79.8425 0z" fill-rule="evenodd"/><path fill="#000000" d="m493.5275 205.82106q0 2.484375 -1.5625 4.265625q-1.546875 1.78125 -4.53125 2.84375q-2.171875 0.796875 -4.40625 1.296875q-2.21875 0.484375 -4.921875 0.8125q0 3.703125 1.375 5.65625q1.375 1.953125 4.015625 1.953125q2.34375 0 4.140625 -1.171875q1.796875 -1.171875 3.53125 -3.484375l1.328125 0.984375q-1.875 2.859375 -4.6875 4.578125q-2.8125 1.703125 -5.828125 1.703125q-4.15625 0 -6.34375 -2.3125q-2.1875 -2.328125 -2.1875 -6.59375q0 -2.953125 0.921875 -5.640625q0.921875 -2.6875 2.703125 -4.90625q1.734375 -2.1875 4.25 -3.515625q2.53125 -1.34375 5.578125 -1.34375q3.375 0 5.0 1.375q1.625 1.375 1.625 3.5zm-4.3125 -0.578125q0 -0.921875 -0.265625 -1.4375q-0.25 -0.53125 -0.640625 -0.796875q-0.421875 -0.28125 -0.890625 -0.34375q-0.46875 -0.078125 -0.96875 -0.078125q-2.8125 0 -5.1875 3.09375q-2.375 3.09375 -3.015625 7.71875q1.640625 -0.234375 3.703125 -0.671875q2.0625 -0.4375 3.421875 -1.140625q1.953125 -1.0 2.890625 -2.578125q0.953125 -1.59375 0.953125 -3.765625z" fill-rule="nonzero"/><path fill="#000000" d="m505.6525 225.33669q-0.328125 1.171875 -0.71875 2.6875q-0.390625 1.5 -0.53125 2.125l-2.15625 9.34375q-0.03125 0.125 -0.046875 0.265625q-0.015625 0.140625 -0.015625 0.265625q0 0.40625 0.1875 0.6875q0.1875 0.265625 0.453125 0.390625q0.3125 0.15625 1.1875 0.296875q0.875 0.140625 1.40625 0.171875l-0.25 1.03125l-10.53125 0l0.25 -1.03125q0.484375 -0.03125 1.484375 -0.125q1.015625 -0.109375 1.421875 -0.21875q0.421875 -0.125 0.828125 -0.546875q0.40625 -0.4375 0.53125 -1.015625l2.5625 -11.125l-3.890625 0l0.28125 -1.234375l0.859375 0q1.625 0 3.046875 -0.546875q1.421875 -0.5625 2.34375 -1.421875l1.296875 0z" fill-rule="nonzero"/><path fill="#000000" fill-opacity="0.0" d="m603.81494 121.63517l0 0c0 -35.27664 28.597412 -63.874016 63.874023 -63.874016l0 0c16.94043 0 33.187073 6.7295685 45.16577 18.708267c11.978699 11.978699 18.708252 28.225304 18.708252 45.16575l0 0c0 35.27665 -28.597351 63.874016 -63.874023 63.874016l0 0c-35.27661 0 -63.874023 -28.597366 -63.874023 -63.874016z" fill-rule="evenodd"/><path stroke="#000000" stroke-width="4.0" stroke-linejoin="round" stroke-linecap="butt" d="m603.81494 121.63517l0 0c0 -35.27664 28.597412 -63.874016 63.874023 -63.874016l0 0c16.94043 0 33.187073 6.7295685 45.16577 18.708267c11.978699 11.978699 18.708252 28.225304 18.708252 45.16575l0 0c0 35.27665 -28.597351 63.874016 -63.874023 63.874016l0 0c-35.27661 0 -63.874023 -28.597366 -63.874023 -63.874016z" fill-rule="evenodd"/><path fill="#000000" fill-opacity="0.0" d="m627.7677 79.05249l79.84253 0l0 85.16536l-79.84253 0z" fill-rule="evenodd"/><path fill="#000000" d="m664.5366 113.36687l-4.125 19.359375q-1.109375 5.203125 -4.65625 8.5q-3.53125 3.3125 -7.28125 3.3125q-2.0625 0 -3.03125 -0.78125q-0.984375 -0.78125 -0.984375 -1.984375q0 -1.0 0.609375 -1.78125q0.609375 -0.765625 1.765625 -0.765625q0.71875 0 1.28125 0.328125q0.546875 0.328125 0.96875 0.8125q0.328125 0.40625 0.734375 1.078125q0.40625 0.6875 0.71875 1.171875q1.796875 -0.140625 3.078125 -2.4375q1.28125 -2.296875 2.21875 -6.5625l4.3125 -20.25l-4.5625 0l0.484375 -2.140625l4.53125 0l0.328125 -1.59375q0.5625 -2.71875 1.78125 -4.890625q1.21875 -2.1875 2.765625 -3.703125q1.515625 -1.5 3.453125 -2.359375q1.9375 -0.859375 3.71875 -0.859375q2.0625 0 3.03125 0.796875q0.96875 0.78125 0.96875 1.96875q0 1.015625 -0.578125 1.796875q-0.5625 0.765625 -1.78125 0.765625q-0.734375 0 -1.28125 -0.3125q-0.53125 -0.328125 -0.953125 -0.84375q-0.46875 -0.578125 -0.75 -1.09375q-0.28125 -0.515625 -0.703125 -1.15625q-1.609375 0.078125 -2.859375 2.140625q-1.234375 2.0625 -2.25 6.859375l-0.515625 2.484375l5.890625 0l-0.5 2.140625l-5.828125 0z" fill-rule="nonzero"/><path fill="#000000" d="m679.8882 134.86687q-0.328125 1.171875 -0.71875 2.6875q-0.390625 1.5 -0.53125 2.125l-2.15625 9.34375q-0.03125 0.125 -0.046875 0.265625q-0.015625 0.140625 -0.015625 0.265625q0 0.40625 0.1875 0.6875q0.1875 0.265625 0.453125 0.390625q0.3125 0.15625 1.1875 0.296875q0.875 0.140625 1.40625 0.171875l-0.25 1.03125l-10.53125 0l0.25 -1.03125q0.484375 -0.03125 1.484375 -0.125q1.015625 -0.109375 1.421875 -0.21875q0.421875 -0.125 0.828125 -0.546875q0.40625 -0.4375 0.53125 -1.015625l2.5625 -11.125l-3.890625 0l0.28125 -1.234375l0.859375 0q1.625 0 3.046875 -0.546875q1.421875 -0.5625 2.34375 -1.421875l1.296875 0z" fill-rule="nonzero"/><path fill="#000000" fill-opacity="0.0" d="m675.0722 437.33072l0 0c0 -35.27664 28.597351 -63.874023 63.873962 -63.874023l0 0c16.94049 0 33.187073 6.729553 45.16577 18.708252c11.978699 11.978699 18.708252 28.225311 18.708252 45.16577l0 0c0 35.27664 -28.597351 63.873993 -63.874023 63.873993l0 0c-35.27661 0 -63.873962 -28.597351 -63.873962 -63.873993z" fill-rule="evenodd"/><path stroke="#000000" stroke-width="4.0" stroke-linejoin="round" stroke-linecap="butt" d="m675.0722 437.33072l0 0c0 -35.27664 28.597351 -63.874023 63.873962 -63.874023l0 0c16.94049 0 33.187073 6.729553 45.16577 18.708252c11.978699 11.978699 18.708252 28.225311 18.708252 45.16577l0 0c0 35.27664 -28.597351 63.873993 -63.874023 63.873993l0 0c-35.27661 0 -63.873962 -28.597351 -63.873962 -63.873993z" fill-rule="evenodd"/><path fill="#000000" fill-opacity="0.0" d="m699.02496 394.74802l79.84247 0l0 85.165375l-79.84247 0z" fill-rule="evenodd"/><path fill="#000000" d="m733.7313 429.0624l-4.125 19.359375q-1.109375 5.203125 -4.65625 8.5q-3.53125 3.3125 -7.28125 3.3125q-2.0625 0 -3.03125 -0.78125q-0.984375 -0.78125 -0.984375 -1.984375q0 -1.0 0.609375 -1.78125q0.609375 -0.765625 1.765625 -0.765625q0.71875 0 1.28125 0.328125q0.546875 0.328125 0.96875 0.8125q0.328125 0.40625 0.734375 1.078125q0.40625 0.6875 0.71875 1.171875q1.796875 -0.140625 3.078125 -2.4375q1.28125 -2.296875 2.21875 -6.5625l4.3125 -20.25l-4.5625 0l0.484375 -2.140625l4.53125 0l0.328125 -1.59375q0.5625 -2.71875 1.78125 -4.890625q1.21875 -2.1875 2.765625 -3.703125q1.515625 -1.5 3.453125 -2.359375q1.9375 -0.859375 3.71875 -0.859375q2.0625 0 3.03125 0.796875q0.96875 0.78125 0.96875 1.96875q0 1.015625 -0.578125 1.796875q-0.5625 0.765625 -1.78125 0.765625q-0.734375 0 -1.28125 -0.3125q-0.53125 -0.328125 -0.953125 -0.84375q-0.46875 -0.578125 -0.75 -1.09375q-0.28125 -0.515625 -0.703125 -1.15625q-1.609375 0.078125 -2.859375 2.140625q-1.234375 2.0625 -2.25 6.859375l-0.515625 2.484375l5.890625 0l-0.5 2.140625l-5.828125 0z" fill-rule="nonzero"/><path fill="#000000" d="m754.7079 455.45303q0 1.71875 -0.84375 2.90625q-0.84375 1.171875 -2.296875 2.0q-1.09375 0.625 -2.546875 1.109375q-1.4375 0.46875 -3.171875 0.984375q-1.484375 0.4375 -2.875 1.09375q-1.375 0.640625 -2.265625 1.5625l12.453125 0l-0.640625 2.71875l-14.640625 0l0.515625 -2.125q0.46875 -0.625 1.125 -1.21875q0.65625 -0.59375 1.546875 -1.15625q0.78125 -0.484375 1.734375 -0.953125q0.96875 -0.46875 2.09375 -0.90625q1.453125 -0.5625 2.53125 -1.09375q1.09375 -0.546875 1.84375 -1.109375q1.140625 -0.84375 1.609375 -1.828125q0.484375 -1.0 0.484375 -2.328125q0 -1.546875 -0.84375 -2.4375q-0.84375 -0.90625 -2.1875 -0.90625q-1.296875 0 -2.203125 0.453125q-0.90625 0.453125 -1.265625 0.96875q0 0.1875 0.015625 0.53125q0.03125 0.34375 0.03125 0.828125q0 1.40625 -0.546875 2.109375q-0.546875 0.6875 -1.75 0.6875q-0.859375 0 -1.203125 -0.390625q-0.328125 -0.40625 -0.328125 -0.984375q0 -0.921875 0.5625 -1.859375q0.578125 -0.953125 1.625 -1.765625q1.015625 -0.796875 2.4375 -1.28125q1.421875 -0.5 3.078125 -0.5q2.65625 0 4.28125 1.3125q1.640625 1.3125 1.640625 3.578125z" fill-rule="nonzero"/><path fill="#000000" fill-opacity="0.0" d="m195.31627 362.46457l80.063 -10.64566" fill-rule="evenodd"/><path stroke="#000000" stroke-width="4.0" stroke-linejoin="round" stroke-linecap="butt" d="m195.31627 362.46457l56.27237 -7.4823303" fill-rule="evenodd"/><path fill="#000000" stroke="#000000" stroke-width="4.0" stroke-linecap="butt" d="m252.45949 361.53152l17.123184 -8.941864l-18.864853 -4.156708z" fill-rule="evenodd"/><path fill="#000000" fill-opacity="0.0" d="m384.43216 306.65314l60.409454 -49.385803" fill-rule="evenodd"/><path stroke="#000000" stroke-width="4.0" stroke-linejoin="round" stroke-linecap="butt" d="m384.43216 306.65317l41.82846 -34.195526" fill-rule="evenodd"/><path fill="#000000" stroke="#000000" stroke-width="4.0" stroke-linecap="butt" d="m430.44232 277.57278l9.872009 -16.60434l-18.235443 6.374054z" fill-rule="evenodd"/><path fill="#000000" fill-opacity="0.0" d="m535.1854 166.93924l68.629944 -45.291344" fill-rule="evenodd"/><path stroke="#000000" stroke-width="4.0" stroke-linejoin="round" stroke-linecap="butt" d="m535.1854 166.93924l48.598755 -32.072037" fill-rule="evenodd"/><path fill="#000000" stroke="#000000" stroke-width="4.0" stroke-linecap="butt" d="m587.4233 140.38158l11.511475 -15.5127945l-18.789734 4.484062z" fill-rule="evenodd"/><path fill="#000000" fill-opacity="0.0" d="m384.43216 396.98465l78.834625 37.322845" fill-rule="evenodd"/><path stroke="#000000" stroke-width="4.0" stroke-linejoin="round" stroke-linecap="butt" d="m384.43216 396.98465l57.142853 27.053253" fill-rule="evenodd"/><path fill="#000000" stroke="#000000" stroke-width="4.0" stroke-linecap="butt" d="m438.7479 430.0094l19.233704 1.7958984l-13.579498 -13.738922z" fill-rule="evenodd"/><path fill="#000000" fill-opacity="0.0" d="m591.0026 434.32285l84.06299 3.0236206" fill-rule="evenodd"/><path stroke="#000000" stroke-width="4.0" stroke-linejoin="round" stroke-linecap="butt" d="m591.0026 434.32285l60.07849 2.1609192" fill-rule="evenodd"/><path fill="#000000" stroke="#000000" stroke-width="4.0" stroke-linecap="butt" d="m650.8436 443.08643l18.378174 -5.950165l-17.903198 -7.2551575z" fill-rule="evenodd"/></g></svg>